<svg aria-hidden="true" style="position:absolute;width:0;height:0;overflow:hidden" xmlns="http://www.w3.org/2000/svg">
  <defs>
    <symbol id="icon-android" viewBox="0 0 32 32">
      <path fill="#fff" style="fill:var(--color1, #fff)" d="M8.439 22.512c0 .731.597 1.328 1.332 1.328h1.522v3.762c0 .953.766 1.731 1.707 1.731.944 0 1.707-.775 1.707-1.731v-3.765h2.657v3.762c0 .953.766 1.731 1.707 1.731.944 0 1.707-.775 1.707-1.731v-3.762H22.3c.735 0 1.332-.597 1.332-1.328V10.16H8.441v12.353zM19.601 3.759l1.403-2.031c.081-.119.063-.278-.047-.356-.109-.075-.266-.038-.347.081l-1.457 2.112c-.96-.378-2.029-.587-3.151-.587s-2.191.209-3.151.587l-1.457-2.109c-.081-.119-.238-.159-.347-.081-.109.075-.128.231-.047.356l1.403 2.031c-2.232 1.037-3.795 3.003-3.995 5.3h15.191c-.206-2.3-1.772-4.265-4.001-5.303zm-6.805 3.203a.836.836 0 0 1-.777-.519.843.843 0 0 1 .613-1.146.842.842 0 1 1 .164 1.666zm6.514 0a.836.836 0 0 1-.777-.519.843.843 0 0 1 .613-1.146.842.842 0 1 1 .164 1.666zm6.983 3.147c-.944 0-1.707.775-1.707 1.731v6.762c0 .953.766 1.731 1.707 1.731.944 0 1.707-.775 1.707-1.731v-6.765a1.712 1.712 0 0 0-1.707-1.728zm-20.586 0c-.944 0-1.707.775-1.707 1.731v6.762c0 .953.766 1.731 1.707 1.731.944 0 1.707-.775 1.707-1.731v-6.765c0-.956-.766-1.728-1.707-1.728z"/>
    </symbol>
    <symbol id="icon-apple" viewBox="0 0 32 32">
      <path fill="#fff" style="fill:var(--color1, #fff)" d="M23.169 16.759c-.012-2.186.931-3.833 2.835-5.048-1.065-1.602-2.677-2.484-4.801-2.654-2.011-.167-4.212 1.231-5.017 1.231-.851 0-2.799-1.173-4.331-1.173-3.162.051-6.522 2.647-6.522 7.929 0 1.561.272 3.173.815 4.833.726 2.186 3.345 7.541 6.077 7.455 1.428-.035 2.438-1.064 4.297-1.064 1.804 0 2.738 1.064 4.331 1.064 2.756-.042 5.124-4.91 5.814-7.102-3.696-1.83-3.498-5.359-3.498-5.471zm-3.208-9.775c1.547-1.929 1.407-3.686 1.361-4.317-1.367.083-2.948.978-3.849 2.077-.992 1.179-1.575 2.638-1.45 4.282 1.477.119 2.826-.679 3.937-2.042z"/>
    </symbol>
    <symbol id="icon-play_white" viewBox="0 0 32 32">
<path fill="#fcfcfc" style="fill: var(--color1, #fcfcfc)" d="M7.345 28.8c-0.251 0-0.491-0.105-0.669-0.293s-0.277-0.442-0.277-0.707v-22c0-0.174 0.043-0.345 0.124-0.495s0.199-0.277 0.34-0.365c0.141-0.088 0.302-0.136 0.466-0.139s0.326 0.040 0.47 0.124l18.909 11c0.148 0.086 0.272 0.213 0.358 0.367s0.132 0.33 0.132 0.509c0 0.179-0.045 0.355-0.132 0.509s-0.21 0.281-0.358 0.367l-18.909 11c-0.14 0.081-0.296 0.124-0.456 0.124z"></path>
</symbol>
<symbol id="icon-play_orange" viewBox="0 0 32 32">
<path fill="#f04c44" style="fill: var(--color2, #f04c44)" d="M7.418 28.8c-0.27 0-0.529-0.105-0.72-0.293s-0.298-0.442-0.298-0.707v-22c0-0.174 0.046-0.345 0.134-0.495s0.214-0.277 0.366-0.365c0.152-0.088 0.325-0.136 0.502-0.139s0.351 0.040 0.506 0.124l20.364 11c0.16 0.086 0.293 0.213 0.385 0.367s0.142 0.33 0.142 0.509c0 0.179-0.049 0.355-0.142 0.509s-0.226 0.281-0.385 0.367l-20.364 11c-0.15 0.081-0.319 0.124-0.491 0.124z"></path>
</symbol>
<symbol id="icon-star-yellow" viewBox="0 0 33 32">
<path fill="#ffc512" stroke="#ffc512" stroke-width="4.1739" stroke-miterlimit="4" stroke-linecap="butt" stroke-linejoin="miter" style="fill: var(--color1, #ffc512); stroke: var(--color1, #ffc512)" d="M16.696 5.632l3.091 7.748 8.314 0.571-6.394 5.387 2.023 8.117-7.035-4.447-7.035 4.447 2.023-8.117-6.394-5.387 8.314-0.571 3.091-7.748z"></path>
</symbol>
  </defs>
</svg>
