<svg aria-hidden="true" style="position:absolute;width:0;height:0;overflow:hidden" xmlns="http://www.w3.org/2000/svg">
  <defs>
    <symbol id="icon-android" viewBox="0 0 32 32">
      <path fill="#fff" style="fill:var(--color1, #fff)" d="M8.439 22.512c0 .731.597 1.328 1.332 1.328h1.522v3.762c0 .953.766 1.731 1.707 1.731.944 0 1.707-.775 1.707-1.731v-3.765h2.657v3.762c0 .953.766 1.731 1.707 1.731.944 0 1.707-.775 1.707-1.731v-3.762H22.3c.735 0 1.332-.597 1.332-1.328V10.16H8.441v12.353zM19.601 3.759l1.403-2.031c.081-.119.063-.278-.047-.356-.109-.075-.266-.038-.347.081l-1.457 2.112c-.96-.378-2.029-.587-3.151-.587s-2.191.209-3.151.587l-1.457-2.109c-.081-.119-.238-.159-.347-.081-.109.075-.128.231-.047.356l1.403 2.031c-2.232 1.037-3.795 3.003-3.995 5.3h15.191c-.206-2.3-1.772-4.265-4.001-5.303zm-6.805 3.203a.836.836 0 0 1-.777-.519.843.843 0 0 1 .613-1.146.842.842 0 1 1 .164 1.666zm6.514 0a.836.836 0 0 1-.777-.519.843.843 0 0 1 .613-1.146.842.842 0 1 1 .164 1.666zm6.983 3.147c-.944 0-1.707.775-1.707 1.731v6.762c0 .953.766 1.731 1.707 1.731.944 0 1.707-.775 1.707-1.731v-6.765a1.712 1.712 0 0 0-1.707-1.728zm-20.586 0c-.944 0-1.707.775-1.707 1.731v6.762c0 .953.766 1.731 1.707 1.731.944 0 1.707-.775 1.707-1.731v-6.765c0-.956-.766-1.728-1.707-1.728z"/>
    </symbol>
    <symbol id="icon-apple" viewBox="0 0 32 32">
      <path fill="#fff" style="fill:var(--color1, #fff)" d="M23.169 16.759c-.012-2.186.931-3.833 2.835-5.048-1.065-1.602-2.677-2.484-4.801-2.654-2.011-.167-4.212 1.231-5.017 1.231-.851 0-2.799-1.173-4.331-1.173-3.162.051-6.522 2.647-6.522 7.929 0 1.561.272 3.173.815 4.833.726 2.186 3.345 7.541 6.077 7.455 1.428-.035 2.438-1.064 4.297-1.064 1.804 0 2.738 1.064 4.331 1.064 2.756-.042 5.124-4.91 5.814-7.102-3.696-1.83-3.498-5.359-3.498-5.471zm-3.208-9.775c1.547-1.929 1.407-3.686 1.361-4.317-1.367.083-2.948.978-3.849 2.077-.992 1.179-1.575 2.638-1.45 4.282 1.477.119 2.826-.679 3.937-2.042z"/>
    </symbol>
    <symbol id="icon-play_white" viewBox="0 0 32 32">
<path fill="#fcfcfc" style="fill: var(--color1, #fcfcfc)" d="M7.345 28.8c-0.251 0-0.491-0.105-0.669-0.293s-0.277-0.442-0.277-0.707v-22c0-0.174 0.043-0.345 0.124-0.495s0.199-0.277 0.34-0.365c0.141-0.088 0.302-0.136 0.466-0.139s0.326 0.040 0.47 0.124l18.909 11c0.148 0.086 0.272 0.213 0.358 0.367s0.132 0.33 0.132 0.509c0 0.179-0.045 0.355-0.132 0.509s-0.21 0.281-0.358 0.367l-18.909 11c-0.14 0.081-0.296 0.124-0.456 0.124z"></path>
</symbol>
<symbol id="icon-play_orange" viewBox="0 0 32 32">
<path fill="#f04c44" style="fill: var(--color2, #f04c44)" d="M7.418 28.8c-0.27 0-0.529-0.105-0.72-0.293s-0.298-0.442-0.298-0.707v-22c0-0.174 0.046-0.345 0.134-0.495s0.214-0.277 0.366-0.365c0.152-0.088 0.325-0.136 0.502-0.139s0.351 0.040 0.506 0.124l20.364 11c0.16 0.086 0.293 0.213 0.385 0.367s0.142 0.33 0.142 0.509c0 0.179-0.049 0.355-0.142 0.509s-0.226 0.281-0.385 0.367l-20.364 11c-0.15 0.081-0.319 0.124-0.491 0.124z"></path>
</symbol>
<symbol id="icon-star-yellow" viewBox="0 0 33 32">
<path fill="#ffc512" stroke="#ffc512" stroke-width="4.1739" stroke-miterlimit="4" stroke-linecap="butt" stroke-linejoin="miter" style="fill: var(--color1, #ffc512); stroke: var(--color1, #ffc512)" d="M16.696 5.632l3.091 7.748 8.314 0.571-6.394 5.387 2.023 8.117-7.035-4.447-7.035 4.447 2.023-8.117-6.394-5.387 8.314-0.571 3.091-7.748z"></path>
</symbol>
<symbol id="icon-money" viewBox="0 0 32 32">
<path d="M26 7c1.654 0 3-1.271 3-2.833 0-2.322-3-4.167-3-4.167s-3 1.845-3 4.167c0 1.562 1.346 2.833 3 2.833zM26 2.576c0.523 0.552 1.006 1.211 1.006 1.591 0 0.524-0.451 0.95-1.006 0.95s-1.006-0.426-1.006-0.95c0-0.384 0.479-1.037 1.005-1.591z"></path>
<path d="M15.958 22.409h1.084c0.546 0 0.99 0.41 0.99 0.914s-0.444 0.914-0.99 0.914h-1.104c-0.527 0-0.955-0.395-0.955-0.882h-1.968c0 1.356 1.088 2.481 2.5 2.67v0.975h1.968v-0.977c1.422-0.198 2.516-1.333 2.516-2.701 0-1.506-1.327-2.731-2.958-2.731h-1.084c-0.546 0-0.99-0.41-0.99-0.914s0.444-0.914 0.99-0.914h1.059c0.546 0 0.991 0.41 0.991 0.915h1.968c0-1.36-1.082-2.491-2.492-2.698v-0.98h-1.968v0.977c-1.422 0.198-2.516 1.333-2.516 2.701 0 1.506 1.327 2.731 2.958 2.731z"></path>
<path d="M24.634 11.297c-0.050-2.952-1.767-4.813-4.196-5.891-0.237 0.402-0.386 0.885-0.817 1.231-0.248 0.185-0.417 0.167-0.609 0.078-0.304-0.141-0.46-0.287-0.119-1.646 0.576-3.131-1.856-4.28-3.672-5.070-0.171 1.317-0.006 2.511-1.461 3.492-1.791 0.956-1.582 2.312-1.457 3.122 0.106 0.69 0.116 0.904-0.341 1.248-0.099 0.074-0.33 0.248-0.862 0.001-0.693-0.357-0.872-0.694-1.322-1.117-1.474 1.183-2.35 2.714-2.407 4.551h-7.37v20.703h32v-20.703h-7.366zM9.876 9.33c0.867 0.527 2.102 0.866 3.212 0.030 1.375-1.033 1.182-2.284 1.067-3.031-0.083-0.564-0.174-0.841 0.487-1.183 1.025-0.547 1.602-1.44 1.923-2.206 0.004 0.005 0.009 0.009 0.013 0.014 0.485 0.513 0.646 1.056 0.495 1.66-0.157 0.625-0.293 1.237-0.234 1.856 0.084 0.893 0.563 1.566 1.384 1.947 0.934 0.442 2.028 0.246 2.818-0.531 1.078 0.792 1.708 2.057 1.717 3.411h-13.514c0.034-0.713 0.253-1.402 0.632-1.967zM23.531 20.308l-0.945 0.945v-4.317h2.055c0.283 0.801 0.919 1.437 1.72 1.72v5.981c-0.801 0.283-1.437 0.919-1.72 1.72h-2.055v-4.344l0.945 0.945 1.326-1.326-1.326-1.326zM9.416 21.256l-0.948-0.948-1.326 1.326 1.326 1.326 0.948-0.948v4.346h-2.056c-0.283-0.801-0.919-1.437-1.72-1.72v-5.981c0.801-0.283 1.437-0.919 1.72-1.72h2.056v4.319zM9.416 15.062h-3.77v0.938c0 0.52-0.423 0.943-0.943 0.943h-0.938v9.41h0.938c0.52 0 0.943 0.423 0.943 0.943v0.938h3.77v1.891h-7.542v-16.953h7.542v1.89zM20.711 30.125h-9.419v-16.953h9.419v16.953zM30.125 30.125h-7.539v-1.891h3.77v-0.938c0-0.52 0.423-0.943 0.943-0.943h0.938v-9.41h-0.938c-0.52 0-0.943-0.423-0.943-0.943v-0.938h-3.77v-1.89h7.539v16.953z"></path>
</symbol>
  </defs>
</svg>
