<svg aria-hidden="true" style="position:absolute;width:0;height:0;overflow:hidden" xmlns="http://www.w3.org/2000/svg">
  <defs>
    <symbol id="icon-android" viewBox="0 0 32 32">
      <path fill="#fff" style="fill:var(--color1, #fff)" d="M8.439 22.512c0 .731.597 1.328 1.332 1.328h1.522v3.762c0 .953.766 1.731 1.707 1.731.944 0 1.707-.775 1.707-1.731v-3.765h2.657v3.762c0 .953.766 1.731 1.707 1.731.944 0 1.707-.775 1.707-1.731v-3.762H22.3c.735 0 1.332-.597 1.332-1.328V10.16H8.441v12.353zM19.601 3.759l1.403-2.031c.081-.119.063-.278-.047-.356-.109-.075-.266-.038-.347.081l-1.457 2.112c-.96-.378-2.029-.587-3.151-.587s-2.191.209-3.151.587l-1.457-2.109c-.081-.119-.238-.159-.347-.081-.109.075-.128.231-.047.356l1.403 2.031c-2.232 1.037-3.795 3.003-3.995 5.3h15.191c-.206-2.3-1.772-4.265-4.001-5.303zm-6.805 3.203a.836.836 0 0 1-.777-.519.843.843 0 0 1 .613-1.146.842.842 0 1 1 .164 1.666zm6.514 0a.836.836 0 0 1-.777-.519.843.843 0 0 1 .613-1.146.842.842 0 1 1 .164 1.666zm6.983 3.147c-.944 0-1.707.775-1.707 1.731v6.762c0 .953.766 1.731 1.707 1.731.944 0 1.707-.775 1.707-1.731v-6.765a1.712 1.712 0 0 0-1.707-1.728zm-20.586 0c-.944 0-1.707.775-1.707 1.731v6.762c0 .953.766 1.731 1.707 1.731.944 0 1.707-.775 1.707-1.731v-6.765c0-.956-.766-1.728-1.707-1.728z"/>
    </symbol>
    <symbol id="icon-apple" viewBox="0 0 32 32">
      <path fill="#fff" style="fill:var(--color1, #fff)" d="M23.169 16.759c-.012-2.186.931-3.833 2.835-5.048-1.065-1.602-2.677-2.484-4.801-2.654-2.011-.167-4.212 1.231-5.017 1.231-.851 0-2.799-1.173-4.331-1.173-3.162.051-6.522 2.647-6.522 7.929 0 1.561.272 3.173.815 4.833.726 2.186 3.345 7.541 6.077 7.455 1.428-.035 2.438-1.064 4.297-1.064 1.804 0 2.738 1.064 4.331 1.064 2.756-.042 5.124-4.91 5.814-7.102-3.696-1.83-3.498-5.359-3.498-5.471zm-3.208-9.775c1.547-1.929 1.407-3.686 1.361-4.317-1.367.083-2.948.978-3.849 2.077-.992 1.179-1.575 2.638-1.45 4.282 1.477.119 2.826-.679 3.937-2.042z"/>
    </symbol>
    <symbol id="icon-play_white" viewBox="0 0 32 32">
<path fill="#fcfcfc" style="fill: var(--color1, #fcfcfc)" d="M7.345 28.8c-0.251 0-0.491-0.105-0.669-0.293s-0.277-0.442-0.277-0.707v-22c0-0.174 0.043-0.345 0.124-0.495s0.199-0.277 0.34-0.365c0.141-0.088 0.302-0.136 0.466-0.139s0.326 0.040 0.47 0.124l18.909 11c0.148 0.086 0.272 0.213 0.358 0.367s0.132 0.33 0.132 0.509c0 0.179-0.045 0.355-0.132 0.509s-0.21 0.281-0.358 0.367l-18.909 11c-0.14 0.081-0.296 0.124-0.456 0.124z"></path>
</symbol>
<symbol id="icon-play_orange" viewBox="0 0 32 32">
<path fill="#f04c44" style="fill: var(--color2, #f04c44)" d="M7.418 28.8c-0.27 0-0.529-0.105-0.72-0.293s-0.298-0.442-0.298-0.707v-22c0-0.174 0.046-0.345 0.134-0.495s0.214-0.277 0.366-0.365c0.152-0.088 0.325-0.136 0.502-0.139s0.351 0.040 0.506 0.124l20.364 11c0.16 0.086 0.293 0.213 0.385 0.367s0.142 0.33 0.142 0.509c0 0.179-0.049 0.355-0.142 0.509s-0.226 0.281-0.385 0.367l-20.364 11c-0.15 0.081-0.319 0.124-0.491 0.124z"></path>
</symbol>
<symbol id="icon-star-yellow" viewBox="0 0 33 32">
<path fill="#ffc512" stroke="#ffc512" stroke-width="4.1739" stroke-miterlimit="4" stroke-linecap="butt" stroke-linejoin="miter" style="fill: var(--color1, #ffc512); stroke: var(--color1, #ffc512)" d="M16.696 5.632l3.091 7.748 8.314 0.571-6.394 5.387 2.023 8.117-7.035-4.447-7.035 4.447 2.023-8.117-6.394-5.387 8.314-0.571 3.091-7.748z"></path>
</symbol>
<symbol id="icon-money" viewBox="0 0 32 32">
<path d="M26 7c1.654 0 3-1.271 3-2.833 0-2.322-3-4.167-3-4.167s-3 1.845-3 4.167c0 1.562 1.346 2.833 3 2.833zM26 2.576c0.523 0.552 1.006 1.211 1.006 1.591 0 0.524-0.451 0.95-1.006 0.95s-1.006-0.426-1.006-0.95c0-0.384 0.479-1.037 1.005-1.591z"></path>
<path d="M15.958 22.409h1.084c0.546 0 0.99 0.41 0.99 0.914s-0.444 0.914-0.99 0.914h-1.104c-0.527 0-0.955-0.395-0.955-0.882h-1.968c0 1.356 1.088 2.481 2.5 2.67v0.975h1.968v-0.977c1.422-0.198 2.516-1.333 2.516-2.701 0-1.506-1.327-2.731-2.958-2.731h-1.084c-0.546 0-0.99-0.41-0.99-0.914s0.444-0.914 0.99-0.914h1.059c0.546 0 0.991 0.41 0.991 0.915h1.968c0-1.36-1.082-2.491-2.492-2.698v-0.98h-1.968v0.977c-1.422 0.198-2.516 1.333-2.516 2.701 0 1.506 1.327 2.731 2.958 2.731z"></path>
<path d="M24.634 11.297c-0.050-2.952-1.767-4.813-4.196-5.891-0.237 0.402-0.386 0.885-0.817 1.231-0.248 0.185-0.417 0.167-0.609 0.078-0.304-0.141-0.46-0.287-0.119-1.646 0.576-3.131-1.856-4.28-3.672-5.070-0.171 1.317-0.006 2.511-1.461 3.492-1.791 0.956-1.582 2.312-1.457 3.122 0.106 0.69 0.116 0.904-0.341 1.248-0.099 0.074-0.33 0.248-0.862 0.001-0.693-0.357-0.872-0.694-1.322-1.117-1.474 1.183-2.35 2.714-2.407 4.551h-7.37v20.703h32v-20.703h-7.366zM9.876 9.33c0.867 0.527 2.102 0.866 3.212 0.030 1.375-1.033 1.182-2.284 1.067-3.031-0.083-0.564-0.174-0.841 0.487-1.183 1.025-0.547 1.602-1.44 1.923-2.206 0.004 0.005 0.009 0.009 0.013 0.014 0.485 0.513 0.646 1.056 0.495 1.66-0.157 0.625-0.293 1.237-0.234 1.856 0.084 0.893 0.563 1.566 1.384 1.947 0.934 0.442 2.028 0.246 2.818-0.531 1.078 0.792 1.708 2.057 1.717 3.411h-13.514c0.034-0.713 0.253-1.402 0.632-1.967zM23.531 20.308l-0.945 0.945v-4.317h2.055c0.283 0.801 0.919 1.437 1.72 1.72v5.981c-0.801 0.283-1.437 0.919-1.72 1.72h-2.055v-4.344l0.945 0.945 1.326-1.326-1.326-1.326zM9.416 21.256l-0.948-0.948-1.326 1.326 1.326 1.326 0.948-0.948v4.346h-2.056c-0.283-0.801-0.919-1.437-1.72-1.72v-5.981c0.801-0.283 1.437-0.919 1.72-1.72h2.056v4.319zM9.416 15.062h-3.77v0.938c0 0.52-0.423 0.943-0.943 0.943h-0.938v9.41h0.938c0.52 0 0.943 0.423 0.943 0.943v0.938h3.77v1.891h-7.542v-16.953h7.542v1.89zM20.711 30.125h-9.419v-16.953h9.419v16.953zM30.125 30.125h-7.539v-1.891h3.77v-0.938c0-0.52 0.423-0.943 0.943-0.943h0.938v-9.41h-0.938c-0.52 0-0.943-0.423-0.943-0.943v-0.938h-3.77v-1.89h7.539v16.953z"></path>
</symbol>
<symbol id="icon-poker-table" viewBox="0 0 32 32">
      <path d="M17 16h2v2h-2v-2zM21 16h2v2h-2v-2zM13 16h2v2h-2v-2zM9 16h2v2H9v-2z"/>
      <path d="M21.648 6H10.351C4.643 6-.001 10.71-.001 16.5S4.643 27 10.351 27h11.297C27.356 27 32 22.29 32 16.5S27.356 6 21.648 6zM11.289 23.18h3.773v1.918h-3.773V23.18zm5.649 0h3.773v1.918h-3.773V23.18zm4.71-1.901H10.351c-2.598 0-4.711-2.144-4.711-4.779s2.113-4.779 4.711-4.779h11.297c2.598 0 4.711 2.144 4.711 4.779s-2.113 4.779-4.711 4.779zM16.938 9.82V7.902h3.773V9.82h-3.773zm-1.875 0H11.29V7.902h3.773V9.82zM1.875 16.5c0-4.42 3.305-8.07 7.539-8.545v1.933c-3.189.463-5.648 3.252-5.648 6.612s2.459 6.149 5.648 6.612v1.933C5.18 24.57 1.875 20.919 1.875 16.5zm20.711 8.545v-1.933c3.189-.463 5.648-3.252 5.648-6.613s-2.459-6.149-5.648-6.612V7.954c4.235.475 7.539 4.126 7.539 8.545s-3.305 8.07-7.539 8.545z"/>
    </symbol>
    <symbol id="icon-credit-card" viewBox="0 0 32 32">
      <path d="M4 22h6v2H4v-2zM11 22h2v2h-2v-2zM15 22h6v2h-6v-2zM23 22h2v2h-2v-2z"/>
      <path d="M32 5H3.766v3.819H0V28h28.234v-3.819H32V5zM5.641 6.902h24.484v7.738h-1.891V8.819H5.64V6.901zm22.593 9.64h1.891v1.918h-1.891v-1.918zm-1.875 9.556H1.875V10.721h24.484v15.377zm1.875-3.819v-1.918h1.891v1.918h-1.891z"/>
      <path d="M12 13H4v6h8v-6zm-1.994 4.006H5.994v-2.011h4.012v2.011z"/>
    </symbol>
    <symbol id="icon-croupier" viewBox="0 0 32 32">
      <path d="M11 27h2v2h-2v-2z"/>
      <path d="M29.296 24.208a4.889 4.889 0 0 0-3.475-3.655L20.72 19.12l-.428-2.129a6.375 6.375 0 0 0 2.267-4.902V8.488c.628-.426 1.453-1.327 1.453-3.124.071-2.763-2.446-5.428-5.319-5.362-.898 0-1.896.195-2.953.401-2.266.506-4.498.751-6.377-.359-1.185 2.991-.837 5.801 1.078 8.226v3.818c0 1.98.886 3.748 2.267 4.902l-.428 2.129-5.101 1.433a4.89 4.89 0 0 0-3.475 3.655L2 31.999h29l-1.704-7.792zM16.5 27.089a8.788 8.788 0 0 0-.871-1.389l-.617-.806 1.487-1.892 1.487 1.892-.617.806a8.834 8.834 0 0 0-.871 1.389zm-2.391-.261a7.021 7.021 0 0 1 1.373 3.297H9.609V21.82l.549-.154 3.951 5.162zm4.782 0 3.951-5.162.549.154v8.305h-5.873a7.017 7.017 0 0 1 1.373-3.297zm1.989-5.714-1.705 2.227-1.201-1.528 2.012-.95.894.251zM11.843 6.993c-1.003-1.289-1.438-2.905-1.215-4.449 1.802.415 3.738.038 5.482-.303.963-.188 1.872-.365 2.583-.365 1.851 0 3.415 1.597 3.415 3.487 0 .287-.032.525-.083.724-.667-1.116-2.069-1.771-3.456-1.662-1.267 1.579-3.257 2.578-5.326 2.567h-1.4zm.502 1.875h.898a8.686 8.686 0 0 0 6.132-2.525 1.638 1.638 0 0 1 1.281 1.588v4.158c0 2.435-1.864 4.416-4.155 4.416s-4.155-1.981-4.155-4.416v-3.22zm4.155 9.511c.721 0 1.413-.132 2.056-.373l.267 1.327-2.322 1.097-2.322-1.097.267-1.327a5.835 5.835 0 0 0 2.056.373zm-3.485 2.484 2.012.95-1.201 1.528-1.705-2.227.894-.251zm-7.45 3.74a3.007 3.007 0 0 1 2.136-2.247l.004-.001v7.771H4.357l1.208-5.522zm19.729 5.522v-7.771l.004.001a3.007 3.007 0 0 1 2.136 2.247l1.208 5.522h-3.348z"/>
    </symbol>
    <symbol id="icon-casino" viewBox="0 0 32 32">
      <path d="m7 20 1.42-1.408L9.84 20l-1.42 1.408L7 20zM22 20l1.42-1.408L24.84 20l-1.42 1.408L22 20z"/>
      <path d="M32 8.593V2H0v6.593h3.766v6.6l-1.658.94c-1.3.736-2.107 2.116-2.107 3.601s.807 2.864 2.107 3.601l9.91 5.616a8.095 8.095 0 0 0 7.966 0l9.91-5.616c1.3-.736 2.107-2.116 2.107-3.601s-.807-2.864-2.107-3.601l-1.659-.94v-6.6h3.766zM1.875 3.859h28.25v2.874H1.875V3.859zm18.108 6.659a8.095 8.095 0 0 0-7.966 0l-2.611 1.48V8.594h13.188v3.404l-2.611-1.48zM5.641 8.593h1.891v4.467l-1.891 1.071V8.593zm24.484 11.141c0 .819-.445 1.58-1.162 1.986l-9.91 5.616a6.2 6.2 0 0 1-6.104 0l-9.91-5.616c-.717-.406-1.162-1.167-1.162-1.986s.445-1.58 1.162-1.986l9.91-5.616a6.2 6.2 0 0 1 6.104 0l9.91 5.616a2.288 2.288 0 0 1 1.162 1.986zm-3.766-5.603-1.891-1.071V8.593h1.891v5.538z"/>
      <path d="M15.5 15c-2.932 1.862-4.513 3.647-4.5 5.491 0 1.732 1.329 3.141 2.962 3.141.21 0 .418-.024.62-.07V25h1.835v-1.438c.202.046.41.07.62.07 1.633 0 2.962-1.409 2.962-3.141.035-1.98-1.861-3.809-4.5-5.491zm1.538 6.685c-.603.074-1.191-.84-1.538-1.245-.4.443-.842 1.26-1.538 1.245-.621 0-1.126-.536-1.126-1.195 0-1.046 1.354-2.257 2.664-3.184 1.31.927 2.664 2.137 2.664 3.184 0 .659-.505 1.195-1.126 1.195z"/>
    </symbol>
    <symbol id="icon-mobile-casino" viewBox="0 0 32 32">
      <path d="M22.5 2h-12c-.662.004-1.296.288-1.764.79S8.003 3.974 8 4.685v23.63c.003.711.268 1.392.736 1.895s1.102.787 1.764.79h12c.662-.003 1.296-.288 1.764-.79s.733-1.184.736-1.895V4.685c-.003-.711-.268-1.392-.736-1.895S23.162 2.003 22.5 2zM9 7.37h15v18.259H9V7.37zm1.5-4.296h12c.398 0 .779.17 1.061.472S24 4.258 24 4.685v1.611H9V4.685c0-.427.158-.837.439-1.139s.663-.472 1.061-.472zm12 26.852h-12c-.398 0-.779-.17-1.061-.472S9 28.742 9 28.315v-1.611h15v1.611c0 .427-.158.837-.439 1.139s-.663.472-1.061.472z"/>
    </symbol>
    <symbol id="icon-online-casino" viewBox="0 0 32 32">
      <path d="M32 24.398V2H0v22.398h11.297v2.805a.943.943 0 0 1-.945.938H8.469V30h15.062v-1.859h-1.883a.943.943 0 0 1-.945-.938v-2.805H32zM1.875 3.859h28.25v14.945H1.875V3.859zm11.133 24.282c.105-.293.164-.609.164-.938v-2.805h5.656v2.805c0 .329.058.644.163.938h-5.983zM1.875 22.539v-1.875h28.25v1.875H1.875z"/>
      <path d="m7 11 1.42-1.408L9.84 11l-1.42 1.408L7 11zM22 11l1.42-1.408L24.84 11l-1.42 1.408L22 11zM15.5 6c-2.932 1.862-4.513 3.647-4.5 5.49 0 1.732 1.329 3.141 2.962 3.141.21 0 .418-.024.62-.07v1.438h1.835v-1.438c.202.046.41.07.62.07 1.633 0 2.962-1.409 2.962-3.141.035-1.98-1.861-3.809-4.5-5.49zm1.538 6.685c-.603.074-1.19-.84-1.538-1.245-.4.443-.842 1.26-1.538 1.245-.621 0-1.126-.536-1.126-1.195 0-1.046 1.354-2.257 2.664-3.184 1.311.927 2.664 2.137 2.664 3.184 0 .659-.505 1.195-1.126 1.195z"/>
    </symbol>
    <symbol id="icon-trophy" viewBox="0 0 32 32">
      <path d="M13 26h6v2h-6v-2zM19.495 6.427 17.3 6.092 16.318 4h-1.635l-.982 2.092-2.196.335L11 8.062l1.589 1.628-.375 2.299 1.323 1.01 1.964-1.085 1.964 1.085 1.323-1.01-.375-2.299 1.589-1.628-.505-1.635zm-2.816 3.975L15.5 9.75l-1.179.652.225-1.381-.954-.978 1.319-.201.59-1.256.59 1.256 1.318.201-.954.978.225 1.381z"/>
      <path d="M24.306 1.883V0H7.693v1.883H3.999v5.585c0 2.948 2.205 5.382 5.023 5.675a8.465 8.465 0 0 0 2.364 2.449c-.094 1.58.541 3.172 1.823 4.154a4.978 4.978 0 0 1-1.283 2.849H9.538v9.406h12.92v-9.406H20.07a4.98 4.98 0 0 1-1.283-2.851c1.209-.904 1.925-2.524 1.823-4.152a8.44 8.44 0 0 0 2.364-2.449c2.817-.293 5.023-2.726 5.023-5.675V1.883h-3.694zM5.839 7.468v-3.71h1.854v4.794c0 .832.119 1.636.339 2.397a3.84 3.84 0 0 1-2.194-3.481zm14.782 22.657H11.38v-5.656h9.241v5.656zm-2.818-7.531h-3.606a6.941 6.941 0 0 0 .745-2.015 4.544 4.544 0 0 0 2.115-.001c.141.704.395 1.388.746 2.017zM16 18.828c-1.24.022-2.486-.957-2.721-2.275.853.302 1.768.467 2.721.467s1.867-.165 2.72-.467c-.253 1.295-1.377 2.274-2.72 2.274zm0-3.682c-3.566 0-6.467-2.958-6.467-6.594V1.875h12.935v6.677c0 3.636-2.901 6.594-6.467 6.594zm10.161-7.678a3.84 3.84 0 0 1-2.194 3.481c.22-.76.339-1.565.339-2.397V3.758h1.854v3.71z"/>
    </symbol>
    <symbol id="icon-crown" viewBox="0 0 32 32">
      <path d="M8 24h17v2H8v-2zM9 18l1.42-1.408L11.84 18l-1.42 1.408L9 18zM20 18l1.42-1.408L22.84 18l-1.42 1.408L20 18zM12 16.5l3.5 4.5 3.5-4.5-3.5-4.5-3.5 4.5zm3.5 1.492L14.34 16.5l1.16-1.492 1.16 1.492-1.16 1.492z"/>
      <path d="M32 12.266c0-1.542-1.265-2.797-2.82-2.797-1.539 0-2.793 1.228-2.819 2.748l-1.843.608a3.125 3.125 0 0 1-3.689-1.412L18.12 6.638a2.77 2.77 0 0 0 .7-1.841C18.82 3.255 17.555 2 16 2s-2.82 1.255-2.82 2.797c0 .705.265 1.349.7 1.841l-2.709 4.775a3.123 3.123 0 0 1-3.689 1.412l-1.843-.608c-.027-1.52-1.28-2.748-2.819-2.748-1.555 0-2.82 1.255-2.82 2.797 0 1.408 1.055 2.576 2.423 2.768l1.137 5.638H2.451v1.859h1.315v5.609H2.451v1.859h27.1V28.14h-1.315v-5.609h1.315v-1.859h-1.109l1.137-5.638c1.367-.192 2.423-1.36 2.423-2.768zm-2.82-.938c.521 0 .945.421.945.938s-.424.937-.945.937c-.521 0-.945-.421-.945-.937s.424-.938.945-.938zM16 3.86c.521 0 .945.421.945.937s-.424.937-.945.937c-.521 0-.945-.421-.945-.937s.424-.937.945-.937zM1.875 12.266c0-.517.424-.938.945-.938s.945.421.945.938c0 .517-.424.937-.945.937s-.945-.421-.945-.937zm24.484 15.875H5.64v-5.609h20.719v5.609zM5.472 20.672l-1.211-6.003c.303-.179.569-.413.785-.688l1.844.609c2.149.736 4.769-.188 5.915-2.265l2.708-4.773a2.791 2.791 0 0 0 .974 0l2.708 4.773c1.167 2.068 3.671 2.997 5.915 2.265l1.844-.609c.216.275.482.509.785.688l-1.211 6.003H5.471z"/>
    </symbol>
    <symbol id="icon-star-grey" viewBox="0 0 33 32">
<path fill="#c3d5cf" stroke="#c3d5cf" stroke-width="3.0968" stroke-miterlimit="4" stroke-linecap="butt" stroke-linejoin="miter" style="fill: var(--color1, #c3d5cf); stroke: var(--color1, #c3d5cf)" d="M16.516 4.218l3.413 8.647 9.211 0.64-7.083 6.033 2.237 9.072-7.777-4.969-7.777 4.969 2.237-9.072-7.083-6.033 9.211-0.64 3.413-8.647z"></path>
</symbol>
  </defs>
</svg>
